<svg xmlns="http://www.w3.org/2000/svg" xmlns:xlink="http://www.w3.org/1999/xlink" width="500" zoomAndPan="magnify" viewBox="0 0 375 374.999991" height="500" preserveAspectRatio="xMidYMid meet" version="1.0"><defs><g/><clipPath id="8bae1c9a4f"><path d="M 95.96875 142.542969 L 306.199219 142.542969 L 306.199219 146.480469 L 95.96875 146.480469 Z M 302.179688 146.480469 L 306.199219 146.480469 L 306.199219 228.4375 L 302.179688 228.4375 Z M 95.96875 146.480469 L 99.90625 146.480469 L 99.90625 228.4375 L 95.96875 228.4375 Z M 95.96875 228.4375 L 306.199219 228.4375 L 306.199219 232.457031 L 95.96875 232.457031 Z M 95.96875 228.4375 " clip-rule="nonzero"/></clipPath></defs><g clip-path="url(#8bae1c9a4f)"><path fill="#ffffff" d="M 95.96875 142.542969 L 306.351562 142.542969 L 306.351562 232.457031 L 95.96875 232.457031 Z M 95.96875 142.542969 " fill-opacity="1" fill-rule="nonzero"/></g><g fill="#ffffff" fill-opacity="1"><g transform="translate(108.654196, 187.269905)"><g><path d="M 6.09375 -15.328125 L 0.09375 -15.328125 L 0.09375 -17.5 L 14.578125 -17.5 L 14.578125 -15.328125 L 8.578125 -15.328125 L 8.578125 0 L 6.09375 0 Z M 6.09375 -15.328125 "/></g></g></g><g fill="#ffffff" fill-opacity="1"><g transform="translate(126.901868, 187.269905)"><g><path d="M 14.328125 0 L 10.546875 -5.375 C 10.078125 -5.34375 9.710938 -5.328125 9.453125 -5.328125 L 5.125 -5.328125 L 5.125 0 L 2.625 0 L 2.625 -17.5 L 9.453125 -17.5 C 11.710938 -17.5 13.492188 -16.957031 14.796875 -15.875 C 16.097656 -14.789062 16.75 -13.300781 16.75 -11.40625 C 16.75 -10.050781 16.414062 -8.898438 15.75 -7.953125 C 15.082031 -7.003906 14.132812 -6.3125 12.90625 -5.875 L 17.046875 0 Z M 9.375 -7.453125 C 10.957031 -7.453125 12.164062 -7.789062 13 -8.46875 C 13.832031 -9.15625 14.25 -10.132812 14.25 -11.40625 C 14.25 -12.664062 13.832031 -13.632812 13 -14.3125 C 12.164062 -14.988281 10.957031 -15.328125 9.375 -15.328125 L 5.125 -15.328125 L 5.125 -7.453125 Z M 9.375 -7.453125 "/></g></g></g><g fill="#ffffff" fill-opacity="1"><g transform="translate(148.648983, 187.269905)"><g><path d="M 15.328125 -2.171875 L 15.328125 0 L 2.625 0 L 2.625 -17.5 L 14.96875 -17.5 L 14.96875 -15.328125 L 5.125 -15.328125 L 5.125 -9.953125 L 13.90625 -9.953125 L 13.90625 -7.828125 L 5.125 -7.828125 L 5.125 -2.171875 Z M 15.328125 -2.171875 "/></g></g></g><g fill="#ffffff" fill-opacity="1"><g transform="translate(168.971331, 187.269905)"><g><path d="M 17.671875 -17.5 L 17.671875 0 L 15.625 0 L 5.125 -13.046875 L 5.125 0 L 2.625 0 L 2.625 -17.5 L 4.671875 -17.5 L 15.171875 -4.453125 L 15.171875 -17.5 Z M 17.671875 -17.5 "/></g></g></g><g fill="#ffffff" fill-opacity="1"><g transform="translate(192.843111, 187.269905)"><g><path d="M 2.625 -17.5 L 10 -17.5 C 11.851562 -17.5 13.492188 -17.128906 14.921875 -16.390625 C 16.359375 -15.660156 17.472656 -14.632812 18.265625 -13.3125 C 19.054688 -11.988281 19.453125 -10.46875 19.453125 -8.75 C 19.453125 -7.03125 19.054688 -5.507812 18.265625 -4.1875 C 17.472656 -2.863281 16.359375 -1.832031 14.921875 -1.09375 C 13.492188 -0.363281 11.851562 0 10 0 L 2.625 0 Z M 9.84375 -2.171875 C 11.257812 -2.171875 12.503906 -2.445312 13.578125 -3 C 14.660156 -3.550781 15.492188 -4.320312 16.078125 -5.3125 C 16.660156 -6.300781 16.953125 -7.445312 16.953125 -8.75 C 16.953125 -10.050781 16.660156 -11.195312 16.078125 -12.1875 C 15.492188 -13.175781 14.660156 -13.945312 13.578125 -14.5 C 12.503906 -15.050781 11.257812 -15.328125 9.84375 -15.328125 L 5.125 -15.328125 L 5.125 -2.171875 Z M 9.84375 -2.171875 "/></g></g></g><g fill="#ffffff" fill-opacity="1"><g transform="translate(217.064838, 187.269905)"><g/></g></g><g fill="#ffffff" fill-opacity="1"><g transform="translate(227.363765, 187.269905)"><g><path d="M 17.671875 -17.5 L 17.671875 0 L 15.171875 0 L 15.171875 -7.796875 L 5.125 -7.796875 L 5.125 0 L 2.625 0 L 2.625 -17.5 L 5.125 -17.5 L 5.125 -9.96875 L 15.171875 -9.96875 L 15.171875 -17.5 Z M 17.671875 -17.5 "/></g></g></g><g fill="#ffffff" fill-opacity="1"><g transform="translate(251.235544, 187.269905)"><g><path d="M 9.875 0.203125 C 7.539062 0.203125 5.722656 -0.460938 4.421875 -1.796875 C 3.117188 -3.128906 2.46875 -5.046875 2.46875 -7.546875 L 2.46875 -17.5 L 4.96875 -17.5 L 4.96875 -7.65625 C 4.96875 -3.90625 6.613281 -2.03125 9.90625 -2.03125 C 11.5 -2.03125 12.71875 -2.488281 13.5625 -3.40625 C 14.414062 -4.332031 14.84375 -5.75 14.84375 -7.65625 L 14.84375 -17.5 L 17.28125 -17.5 L 17.28125 -7.546875 C 17.28125 -5.035156 16.628906 -3.113281 15.328125 -1.78125 C 14.023438 -0.457031 12.207031 0.203125 9.875 0.203125 Z M 9.875 0.203125 "/></g></g></g><g fill="#ffffff" fill-opacity="1"><g transform="translate(274.582405, 187.269905)"><g><path d="M 14.40625 -9.078125 C 15.414062 -8.796875 16.210938 -8.28125 16.796875 -7.53125 C 17.378906 -6.789062 17.671875 -5.851562 17.671875 -4.71875 C 17.671875 -3.207031 17.097656 -2.039062 15.953125 -1.21875 C 14.816406 -0.40625 13.15625 0 10.96875 0 L 2.625 0 L 2.625 -17.5 L 10.46875 -17.5 C 12.46875 -17.5 14.015625 -17.097656 15.109375 -16.296875 C 16.203125 -15.492188 16.75 -14.382812 16.75 -12.96875 C 16.75 -12.050781 16.535156 -11.257812 16.109375 -10.59375 C 15.679688 -9.925781 15.113281 -9.421875 14.40625 -9.078125 Z M 5.125 -15.46875 L 5.125 -9.875 L 10.25 -9.875 C 11.53125 -9.875 12.515625 -10.109375 13.203125 -10.578125 C 13.898438 -11.054688 14.25 -11.753906 14.25 -12.671875 C 14.25 -13.585938 13.898438 -14.28125 13.203125 -14.75 C 12.515625 -15.226562 11.53125 -15.46875 10.25 -15.46875 Z M 10.875 -2.03125 C 12.289062 -2.03125 13.359375 -2.257812 14.078125 -2.71875 C 14.796875 -3.1875 15.15625 -3.921875 15.15625 -4.921875 C 15.15625 -6.867188 13.726562 -7.84375 10.875 -7.84375 L 5.125 -7.84375 L 5.125 -2.03125 Z M 10.875 -2.03125 "/></g></g></g><g fill="#ffffff" fill-opacity="1"><g transform="translate(115.441842, 207.522677)"><g><path d="M 6.578125 -5.59375 L 6.578125 0 L 6.40625 0 L 6.40625 -5.25 L 3.859375 -0.796875 L 3.765625 -0.796875 L 1.21875 -5.234375 L 1.21875 0 L 1.0625 0 L 1.0625 -5.59375 L 1.203125 -5.59375 L 3.8125 -1 L 6.4375 -5.59375 Z M 6.578125 -5.59375 "/></g></g></g><g fill="#ffffff" fill-opacity="1"><g transform="translate(127.725292, 207.522677)"><g><path d="M 3.171875 0.03125 C 2.484375 0.03125 1.953125 -0.164062 1.578125 -0.5625 C 1.203125 -0.96875 1.015625 -1.5625 1.015625 -2.34375 L 1.015625 -5.59375 L 1.171875 -5.59375 L 1.171875 -2.34375 C 1.171875 -1.613281 1.34375 -1.0625 1.6875 -0.6875 C 2.03125 -0.3125 2.523438 -0.125 3.171875 -0.125 C 3.816406 -0.125 4.3125 -0.3125 4.65625 -0.6875 C 5 -1.0625 5.171875 -1.613281 5.171875 -2.34375 L 5.171875 -5.59375 L 5.328125 -5.59375 L 5.328125 -2.34375 C 5.328125 -1.5625 5.132812 -0.96875 4.75 -0.5625 C 4.375 -0.164062 3.847656 0.03125 3.171875 0.03125 Z M 3.171875 0.03125 "/></g></g></g><g fill="#ffffff" fill-opacity="1"><g transform="translate(138.715742, 207.522677)"><g><path d="M 2.421875 0.03125 C 2.023438 0.03125 1.644531 -0.0390625 1.28125 -0.1875 C 0.925781 -0.34375 0.65625 -0.535156 0.46875 -0.765625 L 0.578125 -0.875 C 0.753906 -0.65625 1.007812 -0.472656 1.34375 -0.328125 C 1.6875 -0.191406 2.046875 -0.125 2.421875 -0.125 C 3.003906 -0.125 3.441406 -0.238281 3.734375 -0.46875 C 4.023438 -0.707031 4.171875 -1.007812 4.171875 -1.375 C 4.171875 -1.65625 4.09375 -1.878906 3.9375 -2.046875 C 3.789062 -2.222656 3.601562 -2.351562 3.375 -2.4375 C 3.144531 -2.53125 2.835938 -2.617188 2.453125 -2.703125 C 2.046875 -2.804688 1.722656 -2.90625 1.484375 -3 C 1.242188 -3.09375 1.039062 -3.234375 0.875 -3.421875 C 0.707031 -3.617188 0.625 -3.878906 0.625 -4.203125 C 0.625 -4.460938 0.6875 -4.695312 0.8125 -4.90625 C 0.945312 -5.125 1.15625 -5.296875 1.4375 -5.421875 C 1.726562 -5.546875 2.078125 -5.609375 2.484375 -5.609375 C 2.785156 -5.609375 3.078125 -5.5625 3.359375 -5.46875 C 3.648438 -5.375 3.898438 -5.253906 4.109375 -5.109375 L 4.03125 -4.96875 C 3.8125 -5.132812 3.566406 -5.257812 3.296875 -5.34375 C 3.023438 -5.425781 2.757812 -5.46875 2.5 -5.46875 C 1.9375 -5.46875 1.507812 -5.347656 1.21875 -5.109375 C 0.925781 -4.867188 0.78125 -4.566406 0.78125 -4.203125 C 0.78125 -3.910156 0.859375 -3.675781 1.015625 -3.5 C 1.171875 -3.332031 1.363281 -3.207031 1.59375 -3.125 C 1.820312 -3.039062 2.128906 -2.945312 2.515625 -2.84375 C 2.921875 -2.75 3.242188 -2.65625 3.484375 -2.5625 C 3.722656 -2.46875 3.921875 -2.328125 4.078125 -2.140625 C 4.242188 -1.953125 4.328125 -1.695312 4.328125 -1.375 C 4.328125 -1.113281 4.257812 -0.875 4.125 -0.65625 C 3.988281 -0.445312 3.773438 -0.28125 3.484375 -0.15625 C 3.203125 -0.03125 2.847656 0.03125 2.421875 0.03125 Z M 2.421875 0.03125 "/></g></g></g><g fill="#ffffff" fill-opacity="1"><g transform="translate(148.165771, 207.522677)"><g><path d="M 4.78125 -0.15625 L 4.78125 0 L 1.0625 0 L 1.0625 -5.59375 L 4.65625 -5.59375 L 4.65625 -5.4375 L 1.21875 -5.4375 L 1.21875 -2.921875 L 4.296875 -2.921875 L 4.296875 -2.765625 L 1.21875 -2.765625 L 1.21875 -0.15625 Z M 4.78125 -0.15625 "/></g></g></g><g fill="#ffffff" fill-opacity="1"><g transform="translate(158.150559, 207.522677)"><g><path d="M 3.171875 0.03125 C 2.484375 0.03125 1.953125 -0.164062 1.578125 -0.5625 C 1.203125 -0.96875 1.015625 -1.5625 1.015625 -2.34375 L 1.015625 -5.59375 L 1.171875 -5.59375 L 1.171875 -2.34375 C 1.171875 -1.613281 1.34375 -1.0625 1.6875 -0.6875 C 2.03125 -0.3125 2.523438 -0.125 3.171875 -0.125 C 3.816406 -0.125 4.3125 -0.3125 4.65625 -0.6875 C 5 -1.0625 5.171875 -1.613281 5.171875 -2.34375 L 5.171875 -5.59375 L 5.328125 -5.59375 L 5.328125 -2.34375 C 5.328125 -1.5625 5.132812 -0.96875 4.75 -0.5625 C 4.375 -0.164062 3.847656 0.03125 3.171875 0.03125 Z M 3.171875 0.03125 "/></g></g></g><g fill="#ffffff" fill-opacity="1"><g transform="translate(169.14101, 207.522677)"><g><path d="M 6.578125 -5.59375 L 6.578125 0 L 6.40625 0 L 6.40625 -5.25 L 3.859375 -0.796875 L 3.765625 -0.796875 L 1.21875 -5.234375 L 1.21875 0 L 1.0625 0 L 1.0625 -5.59375 L 1.203125 -5.59375 L 3.8125 -1 L 6.4375 -5.59375 Z M 6.578125 -5.59375 "/></g></g></g><g fill="#ffffff" fill-opacity="1"><g transform="translate(181.424462, 207.522677)"><g/></g></g><g fill="#ffffff" fill-opacity="1"><g transform="translate(188.072992, 207.522677)"><g><path d="M 1.0625 -5.59375 L 3.171875 -5.59375 C 3.753906 -5.59375 4.265625 -5.472656 4.703125 -5.234375 C 5.148438 -4.992188 5.5 -4.660156 5.75 -4.234375 C 6 -3.804688 6.125 -3.328125 6.125 -2.796875 C 6.125 -2.265625 6 -1.785156 5.75 -1.359375 C 5.5 -0.929688 5.148438 -0.597656 4.703125 -0.359375 C 4.265625 -0.117188 3.753906 0 3.171875 0 L 1.0625 0 Z M 3.15625 -0.15625 C 3.71875 -0.15625 4.207031 -0.265625 4.625 -0.484375 C 5.050781 -0.710938 5.378906 -1.023438 5.609375 -1.421875 C 5.847656 -1.828125 5.96875 -2.285156 5.96875 -2.796875 C 5.96875 -3.296875 5.847656 -3.75 5.609375 -4.15625 C 5.378906 -4.5625 5.050781 -4.875 4.625 -5.09375 C 4.207031 -5.320312 3.71875 -5.4375 3.15625 -5.4375 L 1.21875 -5.4375 L 1.21875 -0.15625 Z M 3.15625 -0.15625 "/></g></g></g><g fill="#ffffff" fill-opacity="1"><g transform="translate(199.318851, 207.522677)"><g><path d="M 4.78125 -0.15625 L 4.78125 0 L 1.0625 0 L 1.0625 -5.59375 L 4.65625 -5.59375 L 4.65625 -5.4375 L 1.21875 -5.4375 L 1.21875 -2.921875 L 4.296875 -2.921875 L 4.296875 -2.765625 L 1.21875 -2.765625 L 1.21875 -0.15625 Z M 4.78125 -0.15625 "/></g></g></g><g fill="#ffffff" fill-opacity="1"><g transform="translate(209.303633, 207.522677)"><g><path d="M 2.421875 0.03125 C 2.023438 0.03125 1.644531 -0.0390625 1.28125 -0.1875 C 0.925781 -0.34375 0.65625 -0.535156 0.46875 -0.765625 L 0.578125 -0.875 C 0.753906 -0.65625 1.007812 -0.472656 1.34375 -0.328125 C 1.6875 -0.191406 2.046875 -0.125 2.421875 -0.125 C 3.003906 -0.125 3.441406 -0.238281 3.734375 -0.46875 C 4.023438 -0.707031 4.171875 -1.007812 4.171875 -1.375 C 4.171875 -1.65625 4.09375 -1.878906 3.9375 -2.046875 C 3.789062 -2.222656 3.601562 -2.351562 3.375 -2.4375 C 3.144531 -2.53125 2.835938 -2.617188 2.453125 -2.703125 C 2.046875 -2.804688 1.722656 -2.90625 1.484375 -3 C 1.242188 -3.09375 1.039062 -3.234375 0.875 -3.421875 C 0.707031 -3.617188 0.625 -3.878906 0.625 -4.203125 C 0.625 -4.460938 0.6875 -4.695312 0.8125 -4.90625 C 0.945312 -5.125 1.15625 -5.296875 1.4375 -5.421875 C 1.726562 -5.546875 2.078125 -5.609375 2.484375 -5.609375 C 2.785156 -5.609375 3.078125 -5.5625 3.359375 -5.46875 C 3.648438 -5.375 3.898438 -5.253906 4.109375 -5.109375 L 4.03125 -4.96875 C 3.8125 -5.132812 3.566406 -5.257812 3.296875 -5.34375 C 3.023438 -5.425781 2.757812 -5.46875 2.5 -5.46875 C 1.9375 -5.46875 1.507812 -5.347656 1.21875 -5.109375 C 0.925781 -4.867188 0.78125 -4.566406 0.78125 -4.203125 C 0.78125 -3.910156 0.859375 -3.675781 1.015625 -3.5 C 1.171875 -3.332031 1.363281 -3.207031 1.59375 -3.125 C 1.820312 -3.039062 2.128906 -2.945312 2.515625 -2.84375 C 2.921875 -2.75 3.242188 -2.65625 3.484375 -2.5625 C 3.722656 -2.46875 3.921875 -2.328125 4.078125 -2.140625 C 4.242188 -1.953125 4.328125 -1.695312 4.328125 -1.375 C 4.328125 -1.113281 4.257812 -0.875 4.125 -0.65625 C 3.988281 -0.445312 3.773438 -0.28125 3.484375 -0.15625 C 3.203125 -0.03125 2.847656 0.03125 2.421875 0.03125 Z M 2.421875 0.03125 "/></g></g></g><g fill="#ffffff" fill-opacity="1"><g transform="translate(218.753665, 207.522677)"><g><path d="M 1.0625 -5.59375 L 1.21875 -5.59375 L 1.21875 0 L 1.0625 0 Z M 1.0625 -5.59375 "/></g></g></g><g fill="#ffffff" fill-opacity="1"><g transform="translate(225.689532, 207.522677)"><g><path d="M 5.140625 -2.734375 L 5.28125 -2.734375 L 5.28125 -0.6875 C 5.050781 -0.457031 4.769531 -0.28125 4.4375 -0.15625 C 4.101562 -0.03125 3.742188 0.03125 3.359375 0.03125 C 2.804688 0.03125 2.3125 -0.0859375 1.875 -0.328125 C 1.4375 -0.578125 1.09375 -0.914062 0.84375 -1.34375 C 0.59375 -1.78125 0.46875 -2.265625 0.46875 -2.796875 C 0.46875 -3.328125 0.59375 -3.804688 0.84375 -4.234375 C 1.09375 -4.660156 1.4375 -4.992188 1.875 -5.234375 C 2.3125 -5.484375 2.804688 -5.609375 3.359375 -5.609375 C 3.742188 -5.609375 4.101562 -5.546875 4.4375 -5.421875 C 4.769531 -5.304688 5.050781 -5.132812 5.28125 -4.90625 L 5.1875 -4.796875 C 4.71875 -5.242188 4.109375 -5.46875 3.359375 -5.46875 C 2.847656 -5.46875 2.382812 -5.347656 1.96875 -5.109375 C 1.550781 -4.878906 1.222656 -4.554688 0.984375 -4.140625 C 0.742188 -3.734375 0.625 -3.285156 0.625 -2.796875 C 0.625 -2.296875 0.742188 -1.84375 0.984375 -1.4375 C 1.222656 -1.03125 1.550781 -0.707031 1.96875 -0.46875 C 2.382812 -0.238281 2.847656 -0.125 3.359375 -0.125 C 4.097656 -0.125 4.691406 -0.335938 5.140625 -0.765625 Z M 5.140625 -2.734375 "/></g></g></g><g fill="#ffffff" fill-opacity="1"><g transform="translate(236.520362, 207.522677)"><g><path d="M 5.453125 -5.59375 L 5.453125 0 L 5.3125 0 L 1.21875 -5.296875 L 1.21875 0 L 1.0625 0 L 1.0625 -5.59375 L 1.203125 -5.59375 L 5.296875 -0.296875 L 5.296875 -5.59375 Z M 5.453125 -5.59375 "/></g></g></g><g fill="#ffffff" fill-opacity="1"><g transform="translate(247.686409, 207.522677)"><g/></g></g><g fill="#ffffff" fill-opacity="1"><g transform="translate(254.33494, 207.522677)"><g><path d="M 2.109375 -5.4375 L 0.03125 -5.4375 L 0.03125 -5.59375 L 4.34375 -5.59375 L 4.34375 -5.4375 L 2.265625 -5.4375 L 2.265625 0 L 2.109375 0 Z M 2.109375 -5.4375 "/></g></g></g><g fill="#ffffff" fill-opacity="1"><g transform="translate(263.361956, 207.522677)"><g><path d="M 4.78125 -0.15625 L 4.78125 0 L 1.0625 0 L 1.0625 -5.59375 L 4.65625 -5.59375 L 4.65625 -5.4375 L 1.21875 -5.4375 L 1.21875 -2.921875 L 4.296875 -2.921875 L 4.296875 -2.765625 L 1.21875 -2.765625 L 1.21875 -0.15625 Z M 4.78125 -0.15625 "/></g></g></g><g fill="#ffffff" fill-opacity="1"><g transform="translate(273.346743, 207.522677)"><g><path d="M 4.453125 -1.6875 L 1.03125 -1.6875 L 0.25 0 L 0.078125 0 L 2.671875 -5.59375 L 2.828125 -5.59375 L 5.421875 0 L 5.234375 0 Z M 4.390625 -1.84375 L 2.75 -5.375 L 1.109375 -1.84375 Z M 4.390625 -1.84375 "/></g></g></g><g fill="#ffffff" fill-opacity="1"><g transform="translate(283.491163, 207.522677)"><g><path d="M 6.578125 -5.59375 L 6.578125 0 L 6.40625 0 L 6.40625 -5.25 L 3.859375 -0.796875 L 3.765625 -0.796875 L 1.21875 -5.234375 L 1.21875 0 L 1.0625 0 L 1.0625 -5.59375 L 1.203125 -5.59375 L 3.8125 -1 L 6.4375 -5.59375 Z M 6.578125 -5.59375 "/></g></g></g></svg>